<svg xmlns="http://www.w3.org/2000/svg" width="276" height="276" fill="none" viewBox="0 0 276 276"><path fill="#eff6ff" d="M265.921 13.596a4 4 0 0 0-4-4H13.371a4 4 0 0 0-4 4v249.571a4 4 0 0 0 4 4h248.55a4 4 0 0 0 4-4z"/><rect width="275.358" height="275.504" x=".25" y=".25" stroke="#c5d6f1" stroke-width=".5" rx="3.75"/><path stroke="#c5d6f1" stroke-miterlimit="10" stroke-width=".5" d="M19.668.004v276M39.387.004v276M59.11.004v276M78.828.004v276M98.547.004v276M118.266.004v276M137.984.004v276M157.703.004v276M177.422.004v276M197.145.004v276M216.863.004v276M236.586.004v276M256.301.004v276"/><path stroke="#c5d6f1" stroke-miterlimit="10" stroke-width=".28" d="M0 256.307h276M0 236.586h276M0 216.866h276M0 197.146h276M0 177.427h276M0 157.707h276M0 137.986h276M0 118.268h276M0 98.548h276M0 78.828h276M0 59.098h276M0 39.379h276M0 19.66h276"/><path stroke="#a4bee8" stroke-linejoin="bevel" stroke-width="2.46" d="M80.262 175.231c0-3.387 12.655-6.133 28.266-6.133s28.266 2.746 28.266 6.133"/><path fill="#fff" d="M130.755 157.823v22.286c0 2.663-9.947 4.821-22.217 4.821s-22.218-2.158-22.218-4.821v-22.521"/><path stroke="#e3032e" stroke-linejoin="bevel" stroke-width="2.46" d="M130.755 157.823v22.286c0 2.663-9.947 4.821-22.217 4.821s-22.218-2.158-22.218-4.821v-22.521"/><path fill="#fff" stroke="#e3032e" stroke-linejoin="bevel" stroke-width="2.46" d="M108.532 161.946c12.267 0 22.212-2.158 22.212-4.821s-9.945-4.82-22.212-4.82-22.212 2.158-22.212 4.82 9.945 4.821 22.212 4.821Z"/><path fill="#eff6ff" d="M136.798 190.245V174.98c0 3.388-12.655 6.133-28.266 6.133s-28.266-2.745-28.266-6.133v15.56"/><path stroke="#a4bee8" stroke-linejoin="bevel" stroke-width="2.46" d="M136.798 190.245V174.98c0 3.388-12.655 6.133-28.266 6.133s-28.266-2.745-28.266-6.133v15.56"/><path fill="#eff6ff" d="M136.798 190.153c0 3.387-12.655 6.133-28.266 6.133s-28.266-2.746-28.266-6.133"/><path stroke="#a4bee8" stroke-linejoin="bevel" stroke-width="2.46" d="M136.798 190.153c0 3.387-12.655 6.133-28.266 6.133s-28.266-2.746-28.266-6.133"/><path fill="#eff6ff" d="m126.205 141.217-16.347 15.428h-4.95l-1.306-3.668 21.315-36.058 36.972-15.741h11.835"/><path stroke="#a4bee8" stroke-linejoin="bevel" stroke-width="2.46" d="m126.205 141.217-16.347 15.428h-4.95l-1.306-3.668 21.315-36.058 36.972-15.741h11.835"/><path stroke="#a4bee8" stroke-linejoin="bevel" stroke-width="2.46" d="M173.727 90.68H131.66l-40.062 15.393v5.749l7.129 2.577 32.883-9.841h23.139"/><path stroke="#a4bee8" stroke-linejoin="bevel" stroke-width="2.46" d="M120.671 94.881h-17.636l-.078-3.58 3.564-4.162 40.373-5.729h26.836M108.324 145.14l5.521 2.033-5.873 5.724-3.941.851M91.887 106.766l5.361 2.206 8.886-3.089-4.921-3.014"/><path stroke="#a4bee8" stroke-linejoin="bevel" stroke-width="2.46" d="m103.512 90.828 8.375-.234 1.724-4.45M142.405 127.244l21.108-9.9h18.581v9.906h-43.177l-16.187 4.145v8.865l15.193 3.04 42.05.557 32.732 6.085h53.167"/><path stroke="#a4bee8" stroke-linejoin="bevel" stroke-width="2.46" d="M124.087 130.858c.516-.02 8.792-.116 8.792-.116l3.103 2.257.073 5.397-3.533 2.382-9.792-.296M265.272 98.483l-81.346-27.92-37.445.35-28.843 4.67-3.415 3.522 2.678 2.308h30.63"/><path fill="#272250" d="M256.88 256.534v-.741l-.643-.37-.632.37v.741l.632.371zM237.173 256.534v-.741l-.632-.37-.643.37v.741l.643.371zM217.461 256.534v-.741l-.642-.37-.643.37v.741l.643.371zM197.743 256.534v-.741l-.643-.37-.643.37v.741l.643.371zM178.036 256.534v-.741l-.643-.37-.643.37v.741l.643.371zM158.326 256.534v-.741l-.643-.37-.632.37v.741l.632.371zM138.622 256.534v-.741l-.643-.37-.643.37v.741l.643.371zM118.903 256.534v-.741l-.643-.37-.643.37v.741l.643.371zM99.192 256.534v-.741l-.643-.37-.643.37v.741l.643.371zM79.473 256.534v-.741l-.643-.37-.642.37v.741l.642.371zM59.76 256.534v-.741l-.633-.37-.643.37v.741l.643.371zM40.051 256.534v-.741l-.643-.37-.642.37v.741l.642.371zM20.333 256.534v-.741l-.643-.37-.643.37v.741l.643.371zM256.88 236.824v-.741l-.643-.37-.632.37v.741l.632.371zM237.173 236.824v-.741l-.632-.37-.643.37v.741l.643.371zM217.461 236.824v-.741l-.642-.37-.643.37v.741l.643.371zM197.743 236.824v-.741l-.643-.37-.643.37v.741l.643.371zM178.036 236.824v-.741l-.643-.37-.643.37v.741l.643.371zM158.326 236.824v-.741l-.643-.37-.632.37v.741l.632.371zM138.622 236.824v-.741l-.643-.37-.643.37v.741l.643.371zM118.903 236.824v-.741l-.643-.37-.643.37v.741l.643.371zM99.192 236.824v-.741l-.643-.37-.643.37v.741l.643.371zM79.473 236.824v-.741l-.643-.37-.642.37v.741l.642.371zM59.76 236.824v-.741l-.633-.37-.643.37v.741l.643.371zM40.051 236.824v-.741l-.643-.37-.642.37v.741l.642.371zM20.333 236.824v-.741l-.643-.37-.643.37v.741l.643.371zM256.88 217.104v-.74l-.643-.371-.632.371v.74l.632.371zM237.173 217.104v-.74l-.632-.371-.643.371v.74l.643.371zM217.461 217.104v-.74l-.642-.371-.643.371v.74l.643.371zM197.743 217.104v-.74l-.643-.371-.643.371v.74l.643.371zM178.036 217.104v-.74l-.643-.371-.643.371v.74l.643.371zM158.326 217.104v-.74l-.643-.371-.632.371v.74l.632.371zM138.622 217.104v-.74l-.643-.371-.643.371v.74l.643.371zM118.903 217.104v-.74l-.643-.371-.643.371v.74l.643.371zM99.192 217.104v-.74l-.643-.371-.643.371v.74l.643.371zM79.473 217.104v-.74l-.643-.371-.642.371v.74l.642.371zM59.76 217.104v-.74l-.633-.371-.643.371v.74l.643.371zM40.051 217.104v-.74l-.643-.371-.642.371v.74l.642.371zM20.333 217.104v-.74l-.643-.371-.643.371v.74l.643.371zM256.88 197.397v-.74l-.643-.371-.632.371v.74l.632.371zM237.173 197.397v-.74l-.632-.371-.643.371v.74l.643.371zM217.461 197.397v-.74l-.642-.371-.643.371v.74l.643.371zM197.743 197.397v-.74l-.643-.371-.643.371v.74l.643.371zM178.036 197.397v-.74l-.643-.371-.643.371v.74l.643.371zM158.326 197.397v-.74l-.643-.371-.632.371v.74l.632.371zM138.622 197.397v-.74l-.643-.371-.643.371v.74l.643.371zM118.903 197.397v-.74l-.643-.371-.643.371v.74l.643.371zM99.192 197.397v-.74l-.643-.371-.643.371v.74l.643.371zM79.473 197.397v-.74l-.643-.371-.642.371v.74l.642.371zM59.76 197.397v-.74l-.633-.371-.643.371v.74l.643.371zM40.051 197.397v-.74l-.643-.371-.642.371v.74l.642.371zM20.333 197.397v-.74l-.643-.371-.643.371v.74l.643.371zM256.88 177.687v-.74l-.643-.371-.632.371v.74l.632.371zM237.173 177.687v-.74l-.632-.371-.643.371v.74l.643.371zM217.461 177.687v-.74l-.642-.371-.643.371v.74l.643.371zM197.743 177.687v-.74l-.643-.371-.643.371v.74l.643.371zM178.036 177.687v-.74l-.643-.371-.643.371v.74l.643.371zM158.326 177.687v-.74l-.643-.371-.632.371v.74l.632.371zM138.622 177.687v-.74l-.643-.371-.643.371v.74l.643.371zM118.903 177.687v-.74l-.643-.371-.643.371v.74l.643.371zM99.192 177.687v-.74l-.643-.371-.643.371v.74l.643.371zM79.473 177.687v-.74l-.643-.371-.642.371v.74l.642.371zM59.76 177.687v-.74l-.633-.371-.643.371v.74l.643.371zM40.051 177.687v-.74l-.643-.371-.642.371v.74l.642.371zM20.333 177.687v-.74l-.643-.371-.643.371v.74l.643.371zM256.88 157.968v-.741l-.643-.371-.632.371v.741l.632.37zM237.173 157.968v-.741l-.632-.371-.643.371v.741l.643.37zM217.461 157.968v-.741l-.642-.371-.643.371v.741l.643.37zM197.743 157.968v-.741l-.643-.371-.643.371v.741l.643.37zM178.036 157.968v-.741l-.643-.371-.643.371v.741l.643.37zM158.326 157.968v-.741l-.643-.371-.632.371v.741l.632.37zM138.622 157.968v-.741l-.643-.371-.643.371v.741l.643.37zM118.903 157.968v-.741l-.643-.371-.643.371v.741l.643.37zM99.192 157.968v-.741l-.643-.371-.643.371v.741l.643.37zM79.473 157.968v-.741l-.643-.371-.642.371v.741l.642.37zM59.76 157.968v-.741l-.633-.371-.643.371v.741l.643.37zM40.051 157.968v-.741l-.643-.371-.642.371v.741l.642.37zM20.333 157.968v-.741l-.643-.371-.643.371v.741l.643.37zM256.88 138.259v-.741l-.643-.371-.632.371v.741l.632.37zM237.173 138.259v-.741l-.632-.371-.643.371v.741l.643.37zM217.461 138.259v-.741l-.642-.371-.643.371v.741l.643.37zM197.743 138.259v-.741l-.643-.371-.643.371v.741l.643.37zM178.036 138.259v-.741l-.643-.371-.643.371v.741l.643.37zM158.326 138.259v-.741l-.643-.371-.632.371v.741l.632.37zM138.622 138.259v-.741l-.643-.371-.643.371v.741l.643.37zM118.903 138.259v-.741l-.643-.371-.643.371v.741l.643.37zM99.192 138.259v-.741l-.643-.371-.643.371v.741l.643.37zM79.473 138.259v-.741l-.643-.371-.642.371v.741l.642.37zM59.76 138.259v-.741l-.633-.371-.643.371v.741l.643.37zM40.051 138.259v-.741l-.643-.371-.642.371v.741l.642.37zM20.333 138.259v-.741l-.643-.371-.643.371v.741l.643.37zM256.88 118.55v-.741l-.643-.371-.632.371v.741l.632.37zM237.173 118.55v-.741l-.632-.371-.643.371v.741l.643.37zM217.461 118.55v-.741l-.642-.371-.643.371v.741l.643.37zM197.743 118.55v-.741l-.643-.371-.643.371v.741l.643.37zM178.036 118.55v-.741l-.643-.371-.643.371v.741l.643.37zM158.326 118.55v-.741l-.643-.371-.632.371v.741l.632.37zM138.622 118.55v-.741l-.643-.371-.643.371v.741l.643.37zM118.903 118.55v-.741l-.643-.371-.643.371v.741l.643.37zM99.192 118.55v-.741l-.643-.371-.643.371v.741l.643.37zM79.473 118.55v-.741l-.643-.371-.642.371v.741l.642.37zM59.76 118.55v-.741l-.633-.371-.643.371v.741l.643.37zM40.051 118.55v-.741l-.643-.371-.642.371v.741l.642.37zM20.333 118.55v-.741l-.643-.371-.643.371v.741l.643.37zM256.88 98.83v-.74l-.643-.371-.632.37v.741l.632.37zM237.173 98.83v-.74l-.632-.371-.643.37v.741l.643.37zM217.461 98.83v-.74l-.642-.371-.643.37v.741l.643.37zM197.743 98.83v-.74l-.643-.371-.643.37v.741l.643.37zM178.036 98.83v-.74l-.643-.371-.643.37v.741l.643.37zM158.326 98.83v-.74l-.643-.371-.632.37v.741l.632.37zM138.622 98.83v-.74l-.643-.371-.643.37v.741l.643.37zM118.903 98.83v-.74l-.643-.371-.643.37v.741l.643.37zM99.192 98.83v-.74l-.643-.371-.643.37v.741l.643.37zM79.473 98.83v-.74l-.643-.371-.642.37v.741l.642.37zM59.76 98.83v-.74l-.633-.371-.643.37v.741l.643.37zM40.051 98.83v-.74l-.643-.371-.642.37v.741l.642.37zM20.333 98.83v-.74l-.643-.371-.643.37v.741l.643.37zM256.88 79.133v-.741l-.643-.37-.632.37v.74l.632.371zM237.173 79.133v-.741l-.632-.37-.643.37v.74l.643.371zM217.461 79.133v-.741l-.642-.37-.643.37v.74l.643.371zM197.743 79.133v-.741l-.643-.37-.643.37v.74l.643.371zM178.036 79.133v-.741l-.643-.37-.643.37v.74l.643.371zM158.326 79.133v-.741l-.643-.37-.632.37v.74l.632.371zM138.622 79.133v-.741l-.643-.37-.643.37v.74l.643.371zM118.903 79.133v-.741l-.643-.37-.643.37v.74l.643.371zM99.192 79.133v-.741l-.643-.37-.643.37v.74l.643.371zM79.473 79.133v-.741l-.643-.37-.642.37v.74l.642.371zM59.76 79.133v-.741l-.633-.37-.643.37v.74l.643.371zM40.051 79.133v-.741l-.643-.37-.642.37v.74l.642.371zM20.333 79.133v-.741l-.643-.37-.643.37v.74l.643.371zM256.88 59.413v-.74l-.643-.371-.632.37v.741l.632.37zM237.173 59.413v-.74l-.632-.371-.643.37v.741l.643.37zM217.461 59.413v-.74l-.642-.371-.643.37v.741l.643.37zM197.743 59.413v-.74l-.643-.371-.643.37v.741l.643.37zM178.036 59.413v-.74l-.643-.371-.643.37v.741l.643.37zM158.326 59.413v-.74l-.643-.371-.632.37v.741l.632.37zM138.622 59.413v-.74l-.643-.371-.643.37v.741l.643.37zM118.903 59.413v-.74l-.643-.371-.643.37v.741l.643.37zM99.192 59.413v-.74l-.643-.371-.643.37v.741l.643.37zM79.473 59.413v-.74l-.643-.371-.642.37v.741l.642.37zM59.76 59.413v-.74l-.633-.371-.643.37v.741l.643.37zM40.051 59.413v-.74l-.643-.371-.642.37v.741l.642.37zM20.333 59.413v-.74l-.643-.371-.643.37v.741l.643.37zM256.88 39.705v-.74l-.643-.371-.632.37v.741l.632.37zM237.173 39.705v-.74l-.632-.371-.643.37v.741l.643.37zM217.461 39.705v-.74l-.642-.371-.643.37v.741l.643.37zM197.743 39.705v-.74l-.643-.371-.643.37v.741l.643.37zM178.036 39.705v-.74l-.643-.371-.643.37v.741l.643.37zM158.326 39.705v-.74l-.643-.371-.632.37v.741l.632.37zM138.622 39.705v-.74l-.643-.371-.643.37v.741l.643.37zM118.903 39.705v-.74l-.643-.371-.643.37v.741l.643.37zM99.192 39.705v-.74l-.643-.371-.643.37v.741l.643.37zM79.473 39.705v-.74l-.643-.371-.642.37v.741l.642.37zM59.76 39.705v-.74l-.633-.371-.643.37v.741l.643.37zM40.051 39.705v-.74l-.643-.371-.642.37v.741l.642.37zM20.333 39.705v-.74l-.643-.371-.643.37v.741l.643.37zM256.88 19.995v-.74l-.643-.371-.632.37v.741l.632.37zM237.173 19.995v-.74l-.632-.371-.643.37v.741l.643.37zM217.461 19.995v-.74l-.642-.371-.643.37v.741l.643.37zM197.743 19.995v-.74l-.643-.371-.643.37v.741l.643.37zM178.036 19.995v-.74l-.643-.371-.643.37v.741l.643.37zM158.326 19.995v-.74l-.643-.371-.632.37v.741l.632.37zM138.622 19.995v-.74l-.643-.371-.643.37v.741l.643.37zM118.903 19.995v-.74l-.643-.371-.643.37v.741l.643.37zM99.192 19.995v-.74l-.643-.371-.643.37v.741l.643.37zM79.473 19.995v-.74l-.643-.371-.642.37v.741l.642.37zM59.76 19.995v-.74l-.633-.371-.643.37v.741l.643.37zM40.051 19.995v-.74l-.643-.371-.642.37v.741l.642.37zM20.333 19.995v-.74l-.643-.371-.643.37v.741l.643.37z"/></svg>